<svg width="33" height="34" viewBox="0 0 33 34" fill="none" xmlns="http://www.w3.org/2000/svg">
<path d="M21.3498 33.0019H28.0509C29.3623 32.9981 30.6189 32.4754 31.5462 31.5481C32.4735 30.6208 32.9962 29.3642 33 28.0528V14.8566C32.9962 13.5451 32.4735 12.2885 31.5462 11.3612C30.6189 10.4339 29.3623 9.91124 28.0509 9.90741H24.0589C23.9454 9.90706 23.8332 9.88341 23.7292 9.83793C23.6252 9.79246 23.5316 9.72612 23.4543 9.64302C23.377 9.55993 23.3176 9.46185 23.2797 9.35486C23.2418 9.24786 23.2263 9.13424 23.2342 9.02101C23.417 6.18218 24.5568 3.48919 26.4677 1.38181C26.5753 1.26368 26.6464 1.11683 26.6722 0.959087C26.6981 0.80135 26.6776 0.639503 26.6132 0.493195C26.5488 0.346886 26.4434 0.222404 26.3096 0.134865C26.1759 0.0473251 26.0196 0.000488281 25.8598 4.19617e-05H21.7462C21.6205 -0.00144958 21.4962 0.0266838 21.3833 0.0821648C21.2705 0.137646 21.1723 0.218918 21.0966 0.319401C19.0923 3.14175 18.0608 6.53967 18.158 9.99995L18.158 29.7956C18.1468 30.2185 18.2217 30.6392 18.3779 31.0323C18.5342 31.4254 18.7687 31.7827 19.0671 32.0825C19.3655 32.3823 19.7217 32.6183 20.1141 32.7764C20.5065 32.9344 20.9269 33.0112 21.3498 33.0019ZM3.20441 33.0019L9.90549 33.0019C11.2169 32.9981 12.4735 32.4754 13.4008 31.5481C14.3281 30.6208 14.8508 29.3642 14.8546 28.0528L14.8546 14.8566C14.8508 13.5451 14.3281 12.2885 13.4008 11.3612C12.4735 10.4339 11.2169 9.91124 9.90549 9.90741H5.91351C5.80001 9.90706 5.6878 9.88341 5.58381 9.83793C5.47982 9.79246 5.38627 9.72612 5.30896 9.64302C5.23165 9.55993 5.17222 9.46185 5.13435 9.35486C5.09648 9.24786 5.08098 9.13424 5.0888 9.02101C5.26983 6.18297 6.40743 3.49007 8.31595 1.38181C8.42363 1.26368 8.4947 1.11683 8.52053 0.959087C8.54636 0.80135 8.52585 0.639503 8.46149 0.493195C8.39713 0.346886 8.29167 0.222404 8.15794 0.134865C8.0242 0.0473251 7.86792 0.000488281 7.70808 4.19617e-05L3.59453 4.19617e-05C3.46879 -0.00144958 3.34446 0.0266838 3.2316 0.0821648C3.11875 0.137646 3.02054 0.218918 2.94493 0.319401C0.940605 3.14175 -0.0908775 6.53967 0.00628662 9.99995V29.7956C-0.0049057 30.219 0.0701065 30.6403 0.226761 31.0338C0.383415 31.4274 0.618446 31.7849 0.917564 32.0848C1.21668 32.3847 1.57365 32.6206 1.96677 32.7783C2.3599 32.9359 2.78097 33.012 3.20441 33.0019Z" fill="#F37124"/>
</svg>
